<?xml version="1.0" encoding="UTF-8" standalone="no"?>
<!DOCTYPE svg PUBLIC "-//W3C//DTD SVG 1.1//EN" "http://www.w3.org/Graphics/SVG/1.1/DTD/svg11.dtd">
<svg width="100%" height="100%" viewBox="0 0 470 208" version="1.1" xmlns="http://www.w3.org/2000/svg" xmlns:xlink="http://www.w3.org/1999/xlink" xml:space="preserve" xmlns:serif="http://www.serif.com/" style="fill-rule:evenodd;clip-rule:evenodd;stroke-linejoin:round;stroke-miterlimit:2;">
    <g transform="matrix(1,0,0,1,-3085.06,-569.432)">
        <g transform="matrix(0.317694,0,0,0.445997,1899.83,-77.2321)">
            <path d="M3851.8,1684.05C3851.81,1661.65 3836.75,1636.27 3823.98,1615C3797.87,1571.49 3767.31,1549.47 3747.62,1515.29C3736.73,1496.39 3714.41,1449.93 3750.49,1449.93L4909.58,1449.93C4945.65,1449.93 4996.43,1490.61 5037.44,1515.29C5083.14,1542.81 5183.8,1615 5183.8,1615C5218.29,1651.07 5218.25,1713.34 5183.76,1749.42C5183.76,1749.42 5098.85,1821.61 5056.3,1849.12C5016.1,1875.11 4964.51,1914.48 4928.44,1914.48L3769.35,1914.48C3733.27,1914.48 3755.44,1867.93 3766.48,1849.12C3793.06,1803.83 3800.09,1790.07 3823.94,1749.42C3835.93,1728.99 3851.79,1706.46 3851.8,1684.05Z"
            style="fill:rgb(0,69,114);fill-opacity:0.31;"/>
        </g>
    </g>
</svg>
