<svg width="4448" height="498" viewBox="0 0 4448 498" fill="none" xmlns="http://www.w3.org/2000/svg">
<path d="M195.938 119.718H211.877V217.887H195.938V119.718Z" fill="#E21E31"/>
<path d="M237.378 2.39453H253.316V217.887H237.378V2.39453Z" fill="#E21E31"/>
<path d="M277.225 70.6335H293.163V217.887H277.225V70.6335Z" fill="#E21E31"/>
<path d="M318.664 73.0281H334.602V217.887H318.664V73.0281Z" fill="#E21E31"/>
<path d="M360.104 75.4224H376.042V217.887H360.104V75.4224Z" fill="#E21E31"/>
<path d="M399.949 208.31H415.888V217.887H399.949V208.31Z" fill="#E21E31"/>
<path d="M441.39 175.986H457.328V217.887H441.39V175.986Z" fill="#E21E31"/>
<path d="M481.235 171.197H498.768V217.887H481.235V171.197Z" fill="#E21E31"/>
<path d="M522.675 183.169H538.613V217.887H522.675V183.169Z" fill="#E21E31"/>
<path d="M563 217.077H580V217.828H563V217.077Z" fill="#E21E31"/>
<path d="M604 199.801H620V217.828H604V199.801Z" fill="#E21E31"/>
<path d="M645 211.819H661V217.828H645V211.819Z" fill="#E21E31"/>
<path d="M685 211.819H701V217.828H685V211.819Z" fill="#E21E31"/>
<path d="M727 209.566H743V217.828H727V209.566Z" fill="#E21E31"/>
<path d="M767 211.068H782V217.828H767V211.068Z" fill="#E21E31"/>
<path d="M808 198.299H824V217.828H808V198.299Z" fill="#E21E31"/>
<path d="M849 205.81H865V217.828H849V205.81Z" fill="#E21E31"/>
<path d="M889 217.077H905V217.828H889V217.077Z" fill="#E21E31"/>
<path d="M930.697 152.042H946.636V217.887H930.697V152.042Z" fill="#E21E31"/>
<path d="M972.138 161.619H988.076V217.887H972.138V161.619Z" fill="#E21E31"/>
<path d="M1011.98 142.465H1027.92V217.887H1011.98V142.465Z" fill="#E21E31"/>
<path d="M1053.42 73.0281H1069.36V217.887H1053.42V73.0281Z" fill="#E21E31"/>
<path d="M1094.86 134.084H1110.8V217.887H1094.86V134.084Z" fill="#E21E31"/>
<path d="M1134.71 95.7747H1150.65V217.887H1134.71V95.7747Z" fill="#E21E31"/>
<path d="M1176.15 140.07H1192.09V217.887H1176.15V140.07Z" fill="#E21E31"/>
<path d="M1215.99 215.492H1231.93V217.887H1215.99V215.492Z" fill="#E21E31"/>
<path d="M1257.43 124.507H1273.37V217.887H1257.43V124.507Z" fill="#E21E31"/>
<path d="M1297.28 144.859H1314.81V217.887H1297.28V144.859Z" fill="#E21E31"/>
<path d="M1338.72 213.098H1354.66V217.887H1338.72V213.098Z" fill="#E21E31"/>
<path d="M1378.57 149.648H1396.1V217.887H1378.57V149.648Z" fill="#E21E31"/>
<path d="M1420.01 180.774H1435.94V217.887H1420.01V180.774Z" fill="#E21E31"/>
<path d="M1461.45 137.676H1477.38V217.887H1461.45V137.676Z" fill="#E21E31"/>
<path d="M1501.29 129.296H1517.23V217.887H1501.29V129.296Z" fill="#E21E31"/>
<path d="M1542.73 203.521H1558.67V217.887H1542.73V203.521Z" fill="#E21E31"/>
<path d="M1584.17 215.492H1600.11V217.887H1584.17V215.492Z" fill="#E21E31"/>
<path d="M1624.02 124.507H1639.95V217.887H1624.02V124.507Z" fill="#E21E31"/>
<path d="M1665.46 114.929H1681.4V217.887H1665.46V114.929Z" fill="#E21E31"/>
<path d="M1705.3 117.324H1721.24V215.493H1705.3V117.324Z" fill="#E21E31"/>
<path d="M1746.74 0H1762.68V215.493H1746.74V0Z" fill="#E21E31"/>
<path d="M1786.59 68.2393H1802.53V215.493H1786.59V68.2393Z" fill="#E21E31"/>
<path d="M1828 135.204H1844V215.575H1828V135.204Z" fill="#E21E31"/>
<path d="M1869 156.235H1885V215.575H1869V156.235Z" fill="#E21E31"/>
<path d="M1909.31 205.915H1925.25V215.493H1909.31V205.915Z" fill="#E21E31"/>
<path d="M1950.75 173.591H1966.69V215.493H1950.75V173.591Z" fill="#E21E31"/>
<path d="M2521 206.561H2537V215.575H2521V206.561Z" fill="#E21E31"/>
<path d="M2563 198.299H2579V215.575H2563V198.299Z" fill="#E21E31"/>
<path d="M2604 205.81H2620V215.575H2604V205.81Z" fill="#E21E31"/>
<path d="M2644 201.303H2660V215.575H2644V201.303Z" fill="#E21E31"/>
<path d="M2686 215.575H2701V217.828H2686V215.575Z" fill="#E21E31"/>
<path d="M2767 187.032H2783V217.828H2767V187.032Z" fill="#E21E31"/>
<path d="M2807 64.5972H2824V217.077H2807V64.5972Z" fill="#E21E31"/>
<path d="M2848 208.814H2864V217.077H2848V208.814Z" fill="#E21E31"/>
<path d="M2888 81.8733H2905V217.077H2888V81.8733Z" fill="#E21E31"/>
<path d="M2929 141.213H2945V217.077H2929V141.213Z" fill="#E21E31"/>
<path d="M2971 56.335H2987V217.077H2971V56.335Z" fill="#E21E31"/>
<path d="M3011 201.303H3027V217.077H3011V201.303Z" fill="#E21E31"/>
<path d="M3052 214.823H3068V217.077H3052V214.823Z" fill="#E21E31"/>
<path d="M3133 199.801H3149V217.077H3133V199.801Z" fill="#E21E31"/>
<path d="M3175 198.299H3191V217.077H3175V198.299Z" fill="#E21E31"/>
<path d="M3175 217.077H3191V217.828H3175V217.077Z" fill="#E21E31"/>
<path d="M3216 200.552H3232V217.828H3216V200.552Z" fill="#E21E31"/>
<path d="M3256 204.308H3274V217.828H3256V204.308Z" fill="#E21E31"/>
<path d="M3298 217.077H3313V217.828H3298V217.077Z" fill="#E21E31"/>
<path d="M3337 205.059H3355V217.828H3337V205.059Z" fill="#E21E31"/>
<path d="M3379 211.068H3395V217.828H3379V211.068Z" fill="#E21E31"/>
<path d="M3420 202.805H3436V217.828H3420V202.805Z" fill="#E21E31"/>
<path d="M3460 201.303H3476V217.828H3460V201.303Z" fill="#E21E31"/>
<path d="M3502 215.575H3517V217.828H3502V215.575Z" fill="#E21E31"/>
<path d="M3543 215.492H3558.94V217.887H3543V215.492Z" fill="#E21E31"/>
<path d="M3582.84 124.507H3598.78V217.887H3582.84V124.507Z" fill="#E21E31"/>
<path d="M3624.28 114.929H3640.22V217.887H3624.28V114.929Z" fill="#E21E31"/>
<path d="M3664.13 118.521H3680.07V216.69H3664.13V118.521Z" fill="#E21E31"/>
<path d="M3705.57 1.19702H3721.51V216.69H3705.57V1.19702Z" fill="#E21E31"/>
<path d="M3745.41 69.4365H3761.35V216.69H3745.41V69.4365Z" fill="#E21E31"/>
<path d="M3786.85 71.8311H3802.79V216.69H3786.85V71.8311Z" fill="#E21E31"/>
<path d="M3828.29 74.2251H3844.23V216.69H3828.29V74.2251Z" fill="#E21E31"/>
<path d="M3868 214.073H3884V216.326H3868V214.073Z" fill="#E21E31"/>
<path d="M3910 203.557H3926V216.326H3910V203.557Z" fill="#E21E31"/>
<path d="M3949 202.805H3967V216.326H3949V202.805Z" fill="#E21E31"/>
<path d="M3991 205.81H4007V216.326H3991V205.81Z" fill="#E21E31"/>
<path d="M4031 214.823H4048V216.326H4031V214.823Z" fill="#E21E31"/>
<path d="M4072 178.769H4088V216.326H4072V178.769Z" fill="#E21E31"/>
<path d="M4114 203.557H4130V216.326H4114V203.557Z" fill="#E21E31"/>
<path d="M1994 161.493H2010V215.575H1994V161.493Z" fill="#E21E31"/>
<path d="M2035 96.1448H2051V215.575H2035V96.1448Z" fill="#E21E31"/>
<path d="M2075 133.701H2091V215.575H2075V133.701Z" fill="#E21E31"/>
<path d="M2117 135.204H2133V215.575H2117V135.204Z" fill="#E21E31"/>
<path d="M2158 179.52H2174V215.575H2158V179.52Z" fill="#E21E31"/>
<path d="M2198 210.317H2214V215.575H2198V210.317Z" fill="#E21E31"/>
<path d="M2239 212.57H2255V215.575H2239V212.57Z" fill="#E21E31"/>
<path d="M2279 212.57H2297V215.575H2279V212.57Z" fill="#E21E31"/>
<path d="M2321 213.321H2337V215.575H2321V213.321Z" fill="#E21E31"/>
<path d="M2361 214.823H2378V215.575H2361V214.823Z" fill="#E21E31"/>
<path d="M2402 207.312H2418V215.575H2402V207.312Z" fill="#E21E31"/>
<path d="M2443 212.57H2459V215.575H2443V212.57Z" fill="#E21E31"/>
<path d="M2476 209.566H2493V215.575H2476V209.566Z" fill="#E21E31"/>
<path d="M4146 198.299H4162V217.077H4146V198.299Z" fill="#E21E31"/>
<path d="M4146 217.077H4162V217.828H4146V217.077Z" fill="#E21E31"/>
<path d="M4187 200.552H4203V217.828H4187V200.552Z" fill="#E21E31"/>
<path d="M4227 204.308H4245V217.828H4227V204.308Z" fill="#E21E31"/>
<path d="M4269 217.077H4284V217.828H4269V217.077Z" fill="#E21E31"/>
<path d="M4308 205.059H4326V217.828H4308V205.059Z" fill="#E21E31"/>
<path d="M4350 211.068H4366V217.828H4350V211.068Z" fill="#E21E31"/>
<path d="M4391 202.805H4407V217.828H4391V202.805Z" fill="#E21E31"/>
<path d="M4430 202.054H4446V217.077H4430V202.054Z" fill="#E21E31"/>
<path d="M0 300.65H15.9384V272.661H0V300.65Z" fill="#2F80ED"/>
<path d="M41.4395 309.727H57.3778V272.661H41.4395V309.727Z" fill="#2F80ED"/>
<path d="M81.2861 303.676H97.2245V272.661H81.2861V303.676Z" fill="#2F80ED"/>
<path d="M122.726 359.654H138.664V272.661H122.726V359.654Z" fill="#2F80ED"/>
<path d="M164.165 325.613H180.103V272.661H164.165V325.613Z" fill="#2F80ED"/>
<path d="M204.011 275.687H219.949V272.661H204.011V275.687Z" fill="#2F80ED"/>
<path d="M245 281.674H261V272.661H245V281.674Z" fill="#2F80ED"/>
<path d="M287 280.172H303V272.661H287V280.172Z" fill="#2F80ED"/>
<path d="M327 285.43H343V272.661H327V285.43Z" fill="#2F80ED"/>
<path d="M368 280.172H384V272.661H368V280.172Z" fill="#2F80ED"/>
<path d="M409.616 325.613H425.555V272.661H409.616V325.613Z" fill="#2F80ED"/>
<path d="M449.462 349.82H465.4V272.661H449.462V349.82Z" fill="#2F80ED"/>
<path d="M490.902 321.831H506.841V272.661H490.902V321.831Z" fill="#2F80ED"/>
<path d="M530.748 274.174H546.686V272.661H530.748V274.174Z" fill="#2F80ED"/>
<path d="M572 465.701H588V272.661H572V465.701Z" fill="#2F80ED"/>
<path d="M612 423.638H630V272.661H612V423.638Z" fill="#2F80ED"/>
<path d="M653 282.425H669V272.661H653V282.425Z" fill="#2F80ED"/>
<path d="M693 413.873H711V272.661H693V413.873Z" fill="#2F80ED"/>
<path d="M735 349.276H751V272.661H735V349.276Z" fill="#2F80ED"/>
<path d="M776 438.661H792V272.661H776V438.661Z" fill="#2F80ED"/>
<path d="M816 455.937H832V272.661H816V455.937Z" fill="#2F80ED"/>
<path d="M857 302.706H873V272.661H857V302.706Z" fill="#2F80ED"/>
<path d="M939 282.425H955V272.661H939V282.425Z" fill="#2F80ED"/>
<path d="M980 283.927H996V272.661H980V283.927Z" fill="#2F80ED"/>
<path d="M1020 283.177H1036V272.661H1020V283.177Z" fill="#2F80ED"/>
<path d="M1061 295.946H1077V272.661H1061V295.946Z" fill="#2F80ED"/>
<path d="M1101 288.434H1117V272.661H1101V288.434Z" fill="#2F80ED"/>
<path d="M1143 288.434H1159V272.661H1143V288.434Z" fill="#2F80ED"/>
<path d="M1184 288.434H1200V272.661H1184V288.434Z" fill="#2F80ED"/>
<path d="M1224 274.163H1240V272.661H1224V274.163Z" fill="#2F80ED"/>
<path d="M1266 277.167H1281V272.661H1266V277.167Z" fill="#2F80ED"/>
<path d="M1305 277.918H1323V272.661H1305V277.918Z" fill="#2F80ED"/>
<path d="M1346.79 296.111H1362.73V274.174H1346.79V296.111Z" fill="#2F80ED"/>
<path d="M1387 275.665H1404V274.163H1387V275.665Z" fill="#2F80ED"/>
<path d="M1428 295.195H1444V274.163H1428V295.195Z" fill="#2F80ED"/>
<path d="M1470 280.923H1485V274.163H1470V280.923Z" fill="#2F80ED"/>
<path d="M1509 281.674H1525V274.163H1509V281.674Z" fill="#2F80ED"/>
<path d="M1551 283.927H1567V274.163H1551V283.927Z" fill="#2F80ED"/>
<path d="M1591 282.425H1607V274.163H1591V282.425Z" fill="#2F80ED"/>
<path d="M1632 297.448H1648V274.163H1632V297.448Z" fill="#2F80ED"/>
<path d="M1674 288.434H1689V274.163H1674V288.434Z" fill="#2F80ED"/>
<path d="M1713.38 277.2H1729.31V274.174H1713.38V277.2Z" fill="#2F80ED"/>
<path d="M1754.82 315.779H1770.75V274.174H1754.82V315.779Z" fill="#2F80ED"/>
<path d="M1796.25 309.727H1812.19V274.174H1796.25V309.727Z" fill="#2F80ED"/>
<path d="M1836.1 321.831H1852.04V274.174H1836.1V321.831Z" fill="#2F80ED"/>
<path d="M1877.54 365.705H1893.48V274.174H1877.54V365.705Z" fill="#2F80ED"/>
<path d="M1918.98 327.126H1934.92V274.174H1918.98V327.126Z" fill="#2F80ED"/>
<path d="M1958.83 351.333H1974.76V274.174H1958.83V351.333Z" fill="#2F80ED"/>
<path d="M2000.27 323.344H2016.2V274.174H2000.27V323.344Z" fill="#2F80ED"/>
<path d="M2040.11 275.687H2056.05V274.174H2040.11V275.687Z" fill="#2F80ED"/>
<path d="M2081.55 333.178H2097.49V274.174H2081.55V333.178Z" fill="#2F80ED"/>
<path d="M2121.4 320.318H2138.93V274.174H2121.4V320.318Z" fill="#2F80ED"/>
<path d="M2163 286.181H2179V277.167H2163V286.181Z" fill="#2F80ED"/>
<path d="M2203 401.855H2220V277.167H2203V401.855Z" fill="#2F80ED"/>
<path d="M2244 344.769H2260V277.167H2244V344.769Z" fill="#2F80ED"/>
<path d="M2286 424.389H2302V277.167H2286V424.389Z" fill="#2F80ED"/>
<path d="M2325 439.412H2341V277.168H2325V439.412Z" fill="#2F80ED"/>
<path d="M2367 303.457H2383V277.167H2367V303.457Z" fill="#2F80ED"/>
<path d="M2408 281.674H2424V277.168H2408V281.674Z" fill="#2F80ED"/>
<path d="M2448 448.425H2464V277.167H2448V448.425Z" fill="#2F80ED"/>
<path d="M2490 465.701H2506V277.167H2490V465.701Z" fill="#2F80ED"/>
<path d="M2490 277.167H2506V272.661H2490V277.167Z" fill="#2F80ED"/>
<path d="M2531 443.918H2547V272.661H2531V443.918Z" fill="#2F80ED"/>
<path d="M2570.86 318.805H2588.39V272.661H2570.86V318.805Z" fill="#2F80ED"/>
<path d="M2612.3 275.687H2628.24V272.661H2612.3V275.687Z" fill="#2F80ED"/>
<path d="M2652.15 315.779H2669.68V272.661H2652.15V315.779Z" fill="#2F80ED"/>
<path d="M2693.59 296.111H2709.52V272.661H2693.59V296.111Z" fill="#2F80ED"/>
<path d="M2735.03 323.344H2750.96V272.661H2735.03V323.344Z" fill="#2F80ED"/>
<path d="M2774.87 328.639H2790.81V272.661H2774.87V328.639Z" fill="#2F80ED"/>
<path d="M2816.31 281.738H2832.25V272.661H2816.31V281.738Z" fill="#2F80ED"/>
<path d="M2857.75 274.174H2873.69V272.661H2857.75V274.174Z" fill="#2F80ED"/>
<path d="M2898 293.692H2914V272.661H2898V293.692Z" fill="#2F80ED"/>
<path d="M2939 295.946H2955V272.661H2939V295.946Z" fill="#2F80ED"/>
<path d="M2979 295.195H2995V272.661H2979V295.195Z" fill="#2F80ED"/>
<path d="M3020 321.484H3036V272.661H3020V321.484Z" fill="#2F80ED"/>
<path d="M3060 363.548H3076V273.412H3060V363.548Z" fill="#2F80ED"/>
<path d="M3102 493.493H3118V273.412H3102V493.493Z" fill="#2F80ED"/>
<path d="M3143 489.738H3159V273.412H3143V489.738Z" fill="#2F80ED"/>
<path d="M3183 287.683H3199V273.412H3183V287.683Z" fill="#2F80ED"/>
<path d="M3224 337.258H3240V273.412H3224V337.258Z" fill="#2F80ED"/>
<path d="M3264 344.018H3282V273.412H3264V344.018Z" fill="#2F80ED"/>
<path d="M3306 325.991H3322V273.412H3306V325.991Z" fill="#2F80ED"/>
<path d="M3345 284.679H3363V273.412H3345V284.679Z" fill="#2F80ED"/>
<path d="M3387 462.697H3403V273.412H3387V462.697Z" fill="#2F80ED"/>
<path d="M3428 337.258H3444V273.412H3428V337.258Z" fill="#2F80ED"/>
<path d="M3460 423.638H3476V274.163H3460V423.638Z" fill="#2F80ED"/>
<path d="M3502 465.701H3518V274.163H3502V465.701Z" fill="#2F80ED"/>
<path d="M3542 498H3557V274.163H3542V498Z" fill="#2F80ED"/>
<path d="M3583 494.244H3599V274.163H3583V494.244Z" fill="#2F80ED"/>
<path d="M3624.39 363.877H3640.33V273.858H3624.39V363.877Z" fill="#2F80ED"/>
<path d="M3664.23 279.91H3680.17V273.858H3664.23V279.91Z" fill="#2F80ED"/>
<path d="M3705.67 300.334H3721.61V273.858H3705.67V300.334Z" fill="#2F80ED"/>
<path d="M3745.52 303.36H3763.05V273.858H3745.52V303.36Z" fill="#2F80ED"/>
<path d="M3786.96 295.795H3802.9V273.858H3786.96V295.795Z" fill="#2F80ED"/>
<path d="M3868 284.679H3884V274.163H3868V284.679Z" fill="#2F80ED"/>
<path d="M3910 277.167H3926V274.163H3910V277.167Z" fill="#2F80ED"/>
<path d="M3942 282.425H3959V274.163H3942V282.425Z" fill="#2F80ED"/>
<path d="M3983 280.172H3999V274.163H3983V280.172Z" fill="#2F80ED"/>
<path d="M4023 275.665H4040V274.163H4023V275.665Z" fill="#2F80ED"/>
<path d="M4064 295.946H4080V274.163H4064V295.946Z" fill="#2F80ED"/>
<path d="M4106 281.674H4122V274.163H4106V281.674Z" fill="#2F80ED"/>
<path d="M4146 281.674H4162V274.163H4146V281.674Z" fill="#2F80ED"/>
<path d="M4187 284.679H4203V274.163H4187V284.679Z" fill="#2F80ED"/>
<path d="M4227 338.009H4243V275.665H4227V338.009Z" fill="#2F80ED"/>
<path d="M4268 450.679H4284V275.665H4268V450.679Z" fill="#2F80ED"/>
<path d="M4310 382.326H4326V275.665H4310V382.326Z" fill="#2F80ED"/>
<path d="M4350 281.674H4366V275.665H4350V281.674Z" fill="#2F80ED"/>
<path d="M4391 359.041H4407V275.665H4391V359.041Z" fill="#2F80ED"/>
<path d="M4433 347.023H4448V275.665H4433V347.023Z" fill="#2F80ED"/>
</svg>
