<svg width="40" height="40" viewBox="0 0 40 40" fill="none" xmlns="http://www.w3.org/2000/svg">
<g clip-path="url(#clip0_502_2204)">
<rect width="40" height="40" rx="20" fill="url(#paint0_linear_502_2204)"/>
<path d="M16.4388 27.8499C17.5935 25.9299 20.2446 22.2497 26.5571 17.0784C36.0824 9.27509 27.0924 2.13765 17.4345 5.93902C16.4014 6.34573 13.5384 4.71761 10.8864 6.43284C9.17567 7.5393 9.84145 8.40642 9.17532 9.27355C8.5092 10.1407 5.94107 10.0896 5.37848 12.3412C5.04528 13.6752 5.96734 15.0725 5.84402 16.0765C5.72069 17.0806 4.7473 17.9856 4.70086 19.3111C4.68076 19.8709 4.77113 20.4292 4.96683 20.9541C5.16254 21.479 5.45972 21.9602 5.84142 22.3702C6.22313 22.7803 6.68186 23.1111 7.19144 23.3438C7.70101 23.5765 8.25143 23.7065 8.81126 23.7265C8.81584 24.8332 9.24798 25.8954 10.0174 26.6909C10.7868 27.4865 11.8339 27.9539 12.9399 27.9955C13.649 28.0214 14.3534 27.8689 14.9883 27.5518C15.6182 28.1324 16.159 28.315 16.4388 27.8499Z" fill="url(#paint1_linear_502_2204)"/>
<path d="M18.8 5.46668C17.1579 6.52002 15.1263 9.97468 16.018 14.6122C16.2125 15.624 15.6047 15.927 15.0847 14.6788C13.5157 10.9134 13.3339 7.51748 16.018 5.89308C16.4847 5.61215 16.7513 5.83975 17.0847 5.81215C17.7187 5.75962 18.5723 5.31042 18.8 5.46668Z" fill="url(#paint2_linear_502_2204)"/>
<path d="M16.6663 25.8667C16.6663 24.6667 16.6255 18.7478 16.6275 18.6478C13.3329 19.1334 13.3996 12.8667 16.7329 14.4C17.4663 14.8667 19.5329 14.4 19.3329 10.5334C22.9329 14.4 27.1125 9.89016 27.4709 13.5651C27.9604 18.5831 27.468 23.8346 24.3495 23.835C24.0083 23.8308 23.6682 23.7968 23.3329 23.7334V25.8667C23.3329 27.2 25.7329 27.8667 25.7329 27.8667C25.7329 27.8667 21.5873 31.7734 19.8663 31.7518C18.1452 31.7302 14.2663 27.8667 14.2663 27.8667C14.2663 27.8667 16.6663 27.2 16.6663 25.8667Z" fill="url(#paint3_linear_502_2204)"/>
<g style="mix-blend-mode:multiply">
<path d="M23.3327 23.7327C21.6785 23.3658 20.1111 22.6822 18.7168 21.7195C18.7168 21.7195 19.8672 24.5319 23.3284 25.0655L23.3327 23.7327Z" fill="#FFDBC9"/>
</g>
<path d="M32.2666 31.8667C33.2339 34.0163 33.7333 40.5333 33.7333 40.5333H6.2666C6.2666 40.5333 6.76593 34.0163 7.73327 31.8667C8.58073 29.9836 14.1651 27.8215 15.8017 27.2C16.7466 28.2571 18.1007 28.9333 19.9999 28.9333C21.8991 28.9333 23.2533 28.2571 24.1982 27.2C25.8347 27.8215 31.4191 29.9836 32.2666 31.8667Z" fill="url(#paint4_linear_502_2204)"/>
</g>
<defs>
<linearGradient id="paint0_linear_502_2204" x1="20" y1="40" x2="20" y2="0" gradientUnits="userSpaceOnUse">
<stop stop-color="#FFC9B3"/>
<stop offset="1" stop-color="#FFD2C2"/>
</linearGradient>
<linearGradient id="paint1_linear_502_2204" x1="17.194" y1="28.1554" x2="18.0153" y2="4.71216" gradientUnits="userSpaceOnUse">
<stop stop-color="#E6864E"/>
<stop offset="1" stop-color="#E67240"/>
</linearGradient>
<linearGradient id="paint2_linear_502_2204" x1="16.3719" y1="5.43384" x2="16.3719" y2="15.4986" gradientUnits="userSpaceOnUse">
<stop stop-color="#1D0024"/>
<stop offset="1" stop-color="#100014"/>
</linearGradient>
<linearGradient id="paint3_linear_502_2204" x1="20.9143" y1="10.5334" x2="20.9143" y2="31.7518" gradientUnits="userSpaceOnUse">
<stop stop-color="#FFE0CC"/>
<stop offset="1" stop-color="#FFEADB"/>
</linearGradient>
<linearGradient id="paint4_linear_502_2204" x1="19.9999" y1="27.2" x2="19.9999" y2="40.5333" gradientUnits="userSpaceOnUse">
<stop stop-color="#130027"/>
<stop offset="1" stop-color="#130017"/>
</linearGradient>
<clipPath id="clip0_502_2204">
<rect width="40" height="40" rx="20" fill="white"/>
</clipPath>
</defs>
</svg>
